<?xml version="1.0" ?><svg id="icons" style="enable-background:new 0 0 128 128;" version="1.1" viewBox="0 0 128 128" xml:space="preserve" xmlns="http://www.w3.org/2000/svg" xmlns:xlink="http://www.w3.org/1999/xlink"><style type="text/css">
	.st0{fill:#EF5362;}
	.st1{fill:#DC4250;}
	.st2{fill:#FE6D4B;}
	.st3{fill:#EB5638;}
	.st4{fill:#FFCF47;}
	.st5{fill:#F7BC31;}
	.st6{fill:#A46C4A;}
	.st7{fill:#87593D;}
	.st8{fill:#9FD661;}
	.st9{fill:#8BC34A;}
	.st10{fill:#40D0AD;}
	.st11{fill:#2DBD9B;}
	.st12{fill:#48C0EB;}
	.st13{fill:#33AEDC;}
	.st14{fill:#5A9AEF;}
	.st15{fill:#4787DF;}
	.st16{fill:#AC8FEF;}
	.st17{fill:#9677DF;}
	.st18{fill:#EE85C1;}
	.st19{fill:#D96EAE;}
	.st20{fill:#F5F7FA;}
	.st21{fill:#E6E9ED;}
	.st22{fill:#CCD1D9;}
	.st23{fill:#AAB2BE;}
	.st24{fill:#656D79;}
	.st25{fill:#434A54;}
	.st26{fill:#FFFFFF;}
	.st27{fill:#926141;}
	.st28{fill:#393E47;}
	.st29{fill:#F7AC31;}
</style><g><circle class="st29" cx="64" cy="64" r="40"/></g><g><circle class="st4" cx="64" cy="64" r="32.5"/></g><path class="st29" d="M79,71.1C78.9,65.5,73.6,61,67.2,61H66v-9c1.9,0.2,4.5,0.9,7.4,2.6l3-5.2C72.3,47,68.6,46.2,66,46v-2h-4v2  c-5.8,0.3-10.6,4.3-11,9.4c0,0.3,0,0.6,0,0.9c0,2.5,1,5,2.9,7c2,2.2,4.9,3.5,8.2,3.7v9c-2.5-0.2-5.2-0.7-7.3-1.8l-2.8,5.3  c3.1,1.6,7,2.3,10.1,2.5V84h4v-1.9c0.7,0,1.1,0,1.3-0.1c5.4,0,10.1-3.2,11.3-7.8c0.2-0.9,0.4-1.8,0.4-2.8L79,71.1z M58.2,59.2  c-0.9-0.9-1.3-1.9-1.3-3c0-0.1,0-0.2,0-0.4c0.2-2,2.4-3.6,5-3.9v8.9C60.5,60.8,59.1,60.2,58.2,59.2z M72.8,72.6  c-0.5,1.9-2.9,3.4-5.6,3.4L67,76c-0.3,0-0.6,0-1,0V67h1.2c3.1,0,5.7,1.9,5.8,4.2l0,0.1C73,71.8,72.9,72.2,72.8,72.6z"/></svg>