<?xml version="1.0" ?><!DOCTYPE svg  PUBLIC '-//W3C//DTD SVG 1.0//EN'  'http://www.w3.org/TR/2001/REC-SVG-20010904/DTD/svg10.dtd'><svg height="110px" style="enable-background:new 0 0 110 110;" version="1.0" viewBox="0 0 110 110" width="110px" xml:space="preserve" xmlns="http://www.w3.org/2000/svg" xmlns:xlink="http://www.w3.org/1999/xlink"><g id="Artboard"/><g id="Multicolor"><circle cx="55" cy="55" r="55" style="fill:#FABC3D;"/><g><path d="M87,27c0-2.209-1.791-4-4-4H27c-2.209,0-4,1.791-4,4v40c0,2.209,1.791,4,4,4h12v16l16-16h28    c2.209,0,4-1.791,4-4V27z" style="fill:#F0F1F1;"/><path d="M27,23c-2.209,0-4,1.791-4,4v40c0,0.867,0.283,1.664,0.751,2.318L70.069,23H27z" style="fill:#FFFFFF;"/><g><path d="M49.854,37.046c-4.22,1.284-6.422,4.129-6.239,8.165c2.66,0.734,5.229,2.936,5.229,6.239v0.734     c0,3.487-2.477,6.147-6.238,6.147c-4.037,0-6.606-3.119-6.606-8.074V49.34c0-6.239,1.651-10.551,4.587-13.395     C42.973,33.468,46.551,32,49.211,32c1.927,0,2.844,1.101,2.844,2.569C52.055,35.853,51.138,36.679,49.854,37.046z" style="fill:#21B2D1;"/></g><g><path d="M72.798,37.046c-4.22,1.284-6.422,4.129-6.239,8.165c2.66,0.734,5.229,2.936,5.229,6.239v0.734     c0,3.487-2.477,6.147-6.238,6.147c-4.037,0-6.606-3.119-6.606-8.074V49.34c0-6.239,1.651-10.551,4.587-13.395     C65.917,33.468,69.495,32,72.156,32C74.082,32,75,33.101,75,34.569C75,35.853,74.082,36.679,72.798,37.046z" style="fill:#21B2D1;"/></g></g></g></svg>