<?xml version="1.0" ?><svg id="icons" style="enable-background:new 0 0 128 128;" version="1.1" viewBox="0 0 128 128" xml:space="preserve" xmlns="http://www.w3.org/2000/svg" xmlns:xlink="http://www.w3.org/1999/xlink"><style type="text/css">
	.st0{fill:#EF5362;}
	.st1{fill:#DC4250;}
	.st2{fill:#FE6D4B;}
	.st3{fill:#EB5638;}
	.st4{fill:#FFCF47;}
	.st5{fill:#F7BC31;}
	.st6{fill:#A46C4A;}
	.st7{fill:#87593D;}
	.st8{fill:#9FD661;}
	.st9{fill:#8BC34A;}
	.st10{fill:#40D0AD;}
	.st11{fill:#2DBD9B;}
	.st12{fill:#48C0EB;}
	.st13{fill:#33AEDC;}
	.st14{fill:#5A9AEF;}
	.st15{fill:#4787DF;}
	.st16{fill:#AC8FEF;}
	.st17{fill:#9677DF;}
	.st18{fill:#EE85C1;}
	.st19{fill:#D96EAE;}
	.st20{fill:#F5F7FA;}
	.st21{fill:#E6E9ED;}
	.st22{fill:#CCD1D9;}
	.st23{fill:#AAB2BE;}
	.st24{fill:#656D79;}
	.st25{fill:#434A54;}
	.st26{fill:#FFFFFF;}
	.st27{fill:#926141;}
	.st28{fill:#393E47;}
	.st29{fill:#F7AC31;}
</style><g><path class="st16" d="M89.7,37.1c0,0-1.4-2.1-4.4-2.1C83,35,45,35,42.7,35c-3,0-4.4,2.1-4.4,2.1S26.1,48.7,25.1,50   c-1,1.3-1.1,4.1,0.6,6c8.2,9.1,32.2,35.8,34.2,38c2.4,2.7,5.8,2.6,8.2,0c1.9-2.2,26.1-29,34.3-38c1.7-1.9,1.9-4.1,0.3-6.3   C101.1,47.5,89.7,37.1,89.7,37.1z"/></g><g><path class="st17" d="M102.3,56c0,0-33.8,37.5-34.4,38.2C66.1,96.1,64,96,64,96l17.2-43c0,0,21.7,0,22.4,0   C103.7,54.5,102.3,56,102.3,56z"/></g><g><path class="st17" d="M25.9,56.3c0,0,33.4,37.2,34.1,37.9c1.8,1.9,4.1,1.9,4.1,1.9L46.8,53c0,0-21.7,0-22.4,0   C24.4,54.8,25.9,56.3,25.9,56.3z"/></g><g><polygon class="st17" points="64.1,35 47,53 81,53  "/></g><g><path class="st26" d="M81,44.2L81,44.2c0,0-3.6,6.7-8.8,8.8c5.2,1.9,8.8,8.8,8.8,8.8v0c0,0,3.6-7,8.8-8.8   C84.6,50.9,81,44.2,81,44.2z"/></g></svg>