<?xml version="1.0" ?><svg id="icons" style="enable-background:new 0 0 128 128;" version="1.1" viewBox="0 0 128 128" xml:space="preserve" xmlns="http://www.w3.org/2000/svg" xmlns:xlink="http://www.w3.org/1999/xlink"><style type="text/css">
	.st0{fill:#EF5362;}
	.st1{fill:#DC4250;}
	.st2{fill:#FE6D4B;}
	.st3{fill:#EB5638;}
	.st4{fill:#FFCF47;}
	.st5{fill:#F7BC31;}
	.st6{fill:#A46C4A;}
	.st7{fill:#87593D;}
	.st8{fill:#9FD661;}
	.st9{fill:#8BC34A;}
	.st10{fill:#40D0AD;}
	.st11{fill:#2DBD9B;}
	.st12{fill:#48C0EB;}
	.st13{fill:#33AEDC;}
	.st14{fill:#5A9AEF;}
	.st15{fill:#4787DF;}
	.st16{fill:#AC8FEF;}
	.st17{fill:#9677DF;}
	.st18{fill:#EE85C1;}
	.st19{fill:#D96EAE;}
	.st20{fill:#F5F7FA;}
	.st21{fill:#E6E9ED;}
	.st22{fill:#CCD1D9;}
	.st23{fill:#AAB2BE;}
	.st24{fill:#656D79;}
	.st25{fill:#434A54;}
	.st26{fill:#FFFFFF;}
	.st27{fill:#926141;}
	.st28{fill:#393E47;}
	.st29{fill:#F7AC31;}
</style><g><g><path class="st4" d="M33.6,91.7c-0.5,1.9,1.3,3.9,3.4,3.3c2.1-0.6,14.4-4.1,14.4-4.1L37.7,77.3C37.7,77.3,34.1,89.8,33.6,91.7z"/></g></g><g><g><path class="st0" d="M95.8,29.8c-5,0.2-16.5,1.4-26,7.5c-3.9,2.5-7.3,4.9-10.3,7.2c-2.8,0.3-7.7,0.7-11.3,1    c-2.4,0.2-5.4,1.5-7,3.2c-3.6,3.6-9.6,9.5-10.7,10.5c-1.5,1.5-1,3.3,1.2,3.5c1.4,0.1,7.7,0.4,9.3,0.5c-1,1.6-1.7,2.8-2.2,3.8    c-0.7,1.4,0.2,3.2,1.1,4.2c0.9,0.9,15.6,15.7,16.7,16.8c1.1,1.1,2.7,1.8,4.3,0.9c0.8-0.4,2.1-0.9,3.1-1.6c0,2.2,0,7.5,0,8.7    c0,2.2,1.9,2.8,3.5,1.4c1-0.9,6.2-5.7,10-9.1c2.3-2.1,4.3-5.7,4.7-8.4c0.6-3.9,1.3-9.1,1.6-11.4c2.2-3,4.5-6.3,6.8-10.1    c5.8-9.7,7.3-21,7.6-25.9C98.4,30.7,97.4,29.8,95.8,29.8z M63.9,71.9c-4.7,0-8.6-3.8-8.6-8.6c0-4.7,3.8-8.6,8.6-8.6    c4.7,0,8.6,3.8,8.6,8.6C72.5,68,68.6,71.9,63.9,71.9z"/></g></g></svg>