<?xml version="1.0" ?><svg id="icons" style="enable-background:new 0 0 128 128;" version="1.1" viewBox="0 0 128 128" xml:space="preserve" xmlns="http://www.w3.org/2000/svg" xmlns:xlink="http://www.w3.org/1999/xlink"><style type="text/css">
	.st0{fill:#EF5362;}
	.st1{fill:#DC4250;}
	.st2{fill:#FE6D4B;}
	.st3{fill:#EB5638;}
	.st4{fill:#FFCF47;}
	.st5{fill:#F7BC31;}
	.st6{fill:#A46C4A;}
	.st7{fill:#87593D;}
	.st8{fill:#9FD661;}
	.st9{fill:#8BC34A;}
	.st10{fill:#40D0AD;}
	.st11{fill:#2DBD9B;}
	.st12{fill:#48C0EB;}
	.st13{fill:#33AEDC;}
	.st14{fill:#5A9AEF;}
	.st15{fill:#4787DF;}
	.st16{fill:#AC8FEF;}
	.st17{fill:#9677DF;}
	.st18{fill:#EE85C1;}
	.st19{fill:#D96EAE;}
	.st20{fill:#F5F7FA;}
	.st21{fill:#E6E9ED;}
	.st22{fill:#CCD1D9;}
	.st23{fill:#AAB2BE;}
	.st24{fill:#656D79;}
	.st25{fill:#434A54;}
	.st26{fill:#FFFFFF;}
	.st27{fill:#926141;}
	.st28{fill:#393E47;}
	.st29{fill:#F7AC31;}
</style><g><path class="st1" d="M92,96H47.2C40.5,96,35,90.5,35,83.8V36.2C35,29.5,40.5,24,47.2,24H92c2.2,0,4,1.8,4,4v64   C96,94.2,94.2,96,92,96z"/></g><g><path class="st0" d="M92,98H46c-2.2,0-8-5.9-8-8.1V40c0-2.2,1.8-4,4-4h50c2.2,0,4,1.8,4,4v54C96,96.2,94.2,98,92,98z"/></g><g><path class="st26" d="M88,36H46.5c-1.9,0-3.5-1.6-3.5-3.5l0,0c0-1.9,1.6-3.5,3.5-3.5H85c1.7,0,3,1.3,3,3V36z"/></g><g><path class="st1" d="M46,98c-10.4,0-11-10-11-10V35.7c0,0,0.5,0.3,11,0.3C46,48,46,82.5,46,98z"/></g><g><path class="st26" d="M77,58H55c-1.1,0-2-0.9-2-2l0,0c0-1.1,0.9-2,2-2h22c1.1,0,2,0.9,2,2l0,0C79,57.1,78.1,58,77,58z"/></g><g><path class="st26" d="M75,74c0,1.1-0.9,2-2,2H55c-1.1,0-2-0.9-2-2l0,0c0-1.1,0.9-2,2-2h18C74.1,72,75,72.9,75,74L75,74z"/></g><g><path class="st26" d="M69,67H55c-1.1,0-2-0.9-2-2l0,0c0-1.1,0.9-2,2-2h14c1.1,0,2,0.9,2,2l0,0C71,66.1,70.1,67,69,67z"/></g></svg>